<?xml version="1.0" standalone="no"?>
<!DOCTYPE svg PUBLIC "-//W3C//DTD SVG 20010904//EN"
 "http://www.w3.org/TR/2001/REC-SVG-20010904/DTD/svg10.dtd">
<svg version="1.0" xmlns="http://www.w3.org/2000/svg"
 width="924.000000pt" height="924.000000pt" viewBox="0 0 924.000000 924.000000"
 preserveAspectRatio="xMidYMid meet">
<metadata>
Created by potrace 1.14, written by Peter Selinger 2001-2017
</metadata>
<g transform="translate(0.000000,924.000000) scale(0.100000,-0.100000)"
fill="#000000" stroke="none">
<path d="M4437 9115 c-1 -2 -59 -5 -128 -9 -70 -4 -135 -8 -145 -10 -11 -2
-50 -7 -87 -11 -37 -3 -76 -8 -85 -10 -9 -1 -42 -6 -72 -10 -104 -13 -315 -56
-474 -97 -933 -237 -1782 -770 -2396 -1503 -41 -50 -89 -108 -105 -130 -17
-22 -35 -45 -41 -51 -21 -23 -180 -256 -233 -342 -184 -297 -369 -700 -456
-992 -9 -30 -21 -66 -25 -80 -9 -24 -31 -105 -36 -126 -1 -5 -11 -46 -22 -90
-23 -90 -67 -315 -76 -389 -8 -62 -17 -132 -21 -165 -4 -28 -14 -145 -20 -230
-5 -65 -5 -439 -1 -490 2 -19 7 -79 10 -133 4 -54 9 -106 11 -115 1 -9 6 -44
9 -77 4 -33 11 -85 16 -115 5 -30 12 -73 16 -95 5 -34 16 -84 59 -275 130
-581 448 -1222 863 -1740 140 -174 429 -469 602 -614 599 -502 1320 -853 2055
-1000 17 -4 41 -9 55 -11 104 -22 236 -42 353 -55 160 -18 179 -20 307 -26
199 -11 587 -5 665 10 11 2 56 7 99 11 43 4 86 8 95 10 9 1 39 6 66 9 199 26
463 84 690 153 114 34 355 119 420 148 17 7 68 30 115 50 165 73 420 204 540
280 165 104 456 308 485 341 6 6 32 28 60 50 27 21 55 44 61 49 6 6 48 44 94
85 167 150 355 350 495 525 22 28 42 52 45 55 32 30 259 365 327 485 68 117
82 143 143 264 142 283 278 652 340 926 25 114 68 333 74 380 3 28 8 59 10 70
2 11 7 49 10 85 4 36 9 87 12 114 15 139 20 547 10 671 -17 196 -18 201 -32
310 -5 43 -21 144 -29 185 -2 14 -6 36 -9 50 -80 455 -282 992 -527 1405 -83
139 -76 128 -158 250 -219 324 -468 605 -781 880 -127 111 -397 321 -430 333
-8 3 -24 14 -34 24 -11 10 -25 18 -32 18 -7 0 -14 3 -16 8 -3 7 -146 100 -178
115 -8 4 -46 26 -85 48 -94 54 -431 219 -448 219 -7 0 -17 4 -23 8 -5 5 -47
24 -94 41 -47 18 -96 37 -110 43 -77 31 -382 124 -470 144 -19 4 -39 9 -45 10
-116 29 -361 75 -470 89 -107 14 -132 16 -305 31 -67 6 -507 13 -513 9z"/>
</g>
</svg>
